<?xml version="1.0" standalone="no"?>
<!DOCTYPE svg PUBLIC "-//W3C//DTD SVG 20010904//EN"
 "http://www.w3.org/TR/2001/REC-SVG-20010904/DTD/svg10.dtd">
<svg version="1.0" xmlns="http://www.w3.org/2000/svg"
 width="309.000000pt" height="309.000000pt" viewBox="0 0 309.000000 309.000000"
 preserveAspectRatio="xMidYMid meet">
<metadata>
Created by potrace 1.11, written by Peter Selinger 2001-2013
</metadata>
<g transform="translate(0.000000,309.000000) scale(0.100000,-0.100000)"
fill="#000000" stroke="none">
<path d="M1345 2970 c-59 -24 -84 -91 -160 -423 -36 -160 -71 -265 -99 -302
-14 -18 -47 -44 -73 -56 -46 -23 -59 -24 -343 -29 -306 -5 -328 -8 -350 -50
-13 -24 -13 -76 0 -101 26 -47 58 -52 345 -57 l270 -5 32 -32 c48 -48 48 -51
-53 -461 -50 -204 -58 -226 -101 -265 -65 -61 -76 -63 -348 -67 -258 -3 -294
-8 -320 -46 -17 -24 -20 -79 -5 -107 25 -45 61 -52 305 -57 l230 -5 32 -32
c26 -26 33 -41 33 -73 0 -76 -52 -260 -112 -396 -26 -61 -30 -78 -26 -143 3
-72 5 -76 41 -109 43 -40 85 -44 133 -15 40 25 47 45 124 366 35 143 72 278
84 300 12 21 41 53 64 70 l44 30 279 3 280 3 35 -35 c29 -29 34 -41 34 -82 0
-66 -64 -303 -107 -394 -32 -69 -35 -80 -31 -153 3 -76 4 -80 40 -113 42 -38
80 -44 128 -19 38 20 58 59 75 150 8 41 28 127 44 192 16 65 38 159 50 209 11
49 27 106 35 126 19 45 75 94 123 107 21 6 171 12 333 14 268 2 298 4 327 21
70 43 68 146 -4 174 -17 7 -132 12 -303 14 -252 3 -278 5 -307 23 -58 34 -71
96 -43 190 5 17 27 109 49 205 68 300 90 349 170 389 32 16 69 19 311 23 246
3 278 6 307 23 70 41 68 145 -4 173 -17 7 -123 12 -268 14 -231 3 -241 4 -277
26 -63 39 -66 70 -24 252 20 85 48 197 61 247 29 109 32 183 8 224 -29 48 -93
58 -137 20 -40 -35 -52 -74 -147 -468 -47 -197 -67 -236 -146 -274 -47 -23
-55 -24 -298 -24 -282 0 -303 5 -331 71 -14 33 -13 46 20 187 20 84 47 195 61
247 50 184 45 264 -20 294 -37 18 -42 18 -70 6z m591 -1054 c51 -51 53 -30
-61 -521 -32 -136 -57 -189 -107 -225 -57 -42 -115 -50 -341 -50 -233 1 -271
7 -310 51 -26 28 -28 37 -25 88 5 68 123 532 148 581 21 40 52 71 95 93 25 14
74 16 299 17 l268 0 34 -34z"/>
<path d="M1435 1858 c-46 -16 -107 -64 -134 -104 -52 -76 -57 -205 -11 -279
11 -18 20 -47 20 -64 0 -23 9 -42 30 -63 19 -18 30 -40 30 -57 0 -46 14 -51
141 -51 125 0 129 2 129 55 0 13 14 37 30 53 20 21 30 40 30 61 0 16 10 46 22
66 29 50 38 110 26 175 -13 70 -30 102 -80 150 -61 60 -159 84 -233 58z m155
-63 c98 -51 140 -189 88 -288 -13 -23 -25 -60 -28 -82 -4 -30 -10 -41 -25 -43
-33 -6 -45 -22 -45 -58 0 -38 -17 -47 -22 -12 -5 34 -38 37 -38 4 0 -16 -6
-26 -15 -26 -9 0 -15 9 -15 25 0 18 -5 25 -20 25 -15 0 -20 -7 -20 -25 0 -14
-4 -25 -10 -25 -5 0 -10 15 -10 33 0 41 -9 54 -40 58 -21 3 -26 11 -30 44 -3
22 -15 59 -27 82 -43 80 -23 192 45 256 57 55 143 67 212 32z"/>
<path d="M1370 1580 c-27 -27 -25 -56 5 -85 27 -28 37 -30 68 -14 29 16 37 28
37 60 0 54 -70 79 -110 39z"/>
<path d="M1547 1582 c-25 -28 -21 -67 10 -91 28 -23 54 -21 86 7 21 19 22 51
1 80 -19 28 -74 30 -97 4z"/>
<path d="M1485 1450 c-24 -27 -13 -50 25 -50 33 0 40 21 16 53 -17 21 -19 21
-41 -3z"/>
<path d="M2042 787 l-32 -33 100 -99 c55 -55 100 -104 100 -110 0 -5 -45 -55
-100 -110 l-100 -101 35 -34 35 -34 105 104 105 105 105 -105 105 -105 32 33
33 32 -105 105 -105 105 105 105 104 105 -34 35 -34 35 -101 -100 c-55 -55
-105 -100 -110 -100 -5 0 -55 45 -110 100 l-101 100 -32 -33z"/>
</g>
</svg>
